<?xml version="1.0" standalone="no"?>
<!DOCTYPE svg PUBLIC "-//W3C//DTD SVG 20010904//EN"
 "http://www.w3.org/TR/2001/REC-SVG-20010904/DTD/svg10.dtd">
<svg version="1.0" xmlns="http://www.w3.org/2000/svg"
 width="260.000000pt" height="260.000000pt" viewBox="0 0 260.000000 260.000000"
 preserveAspectRatio="xMidYMid meet">
<metadata>
Created by potrace 1.11, written by Peter Selinger 2001-2013
</metadata>
<g transform="translate(0.000000,260.000000) scale(0.100000,-0.100000)"
fill="#000000" stroke="none">
<path d="M639 2508 c-1 -13 -1 -29 0 -35 1 -9 -13 -13 -41 -13 -24 -1 -166 -2
-317 -3 -209 -2 -275 -5 -279 -14 -3 -10 65 -13 317 -13 l320 0 -2 -57 -2 -58
-47 -3 c-63 -4 -62 -22 1 -22 l49 0 -2 -202 c-2 -126 -7 -213 -14 -230 l-12
-28 -210 0 c-138 0 -209 -3 -205 -10 4 -6 83 -10 206 -10 109 0 199 -1 199 -3
0 -1 -7 -34 -15 -72 -17 -80 -20 -175 -5 -175 6 0 10 12 11 28 3 71 27 210 38
217 4 2 8 -149 8 -335 0 -306 -1 -340 -16 -341 -9 0 -65 -1 -126 -2 -155 -3
-152 -21 4 -25 69 -1 127 -4 129 -7 7 -7 5 -315 -2 -322 -4 -4 -144 -7 -313
-7 -236 -1 -307 -4 -311 -13 -3 -10 65 -13 316 -13 l320 0 0 -87 c0 -112 0
-113 12 -113 6 0 10 40 10 100 l0 100 109 0 108 0 1 -228 c0 -275 0 -262 12
-262 6 0 11 94 13 247 2 228 3 220 5 -90 2 -266 5 -338 14 -334 10 3 13 79 13
335 l0 332 633 0 c503 0 633 3 630 13 -4 9 -138 12 -626 13 -342 0 -624 2
-627 5 -7 7 -10 317 -3 324 4 4 692 7 1078 5 l36 0 -1 -102 c-1 -111 2 -141
16 -132 5 3 9 57 9 120 l0 114 33 0 c17 0 134 1 260 1 187 0 227 2 227 13 0
12 -39 14 -217 14 -120 0 -237 1 -260 1 l-43 1 0 341 c0 192 4 338 9 335 13
-8 31 -87 38 -171 4 -48 10 -74 17 -72 18 6 5 146 -20 230 -5 15 4 17 90 17
57 0 96 4 96 10 0 6 -40 10 -99 10 l-99 0 -16 40 c-13 32 -16 78 -16 211 0
139 -2 169 -13 161 -9 -8 -13 -46 -12 -142 1 -71 -1 -130 -4 -130 -4 0 -17 19
-31 42 -29 48 -140 165 -187 197 -25 17 -33 30 -33 52 l0 29 295 0 c190 0 295
4 295 10 0 6 -105 10 -295 10 l-295 0 0 60 0 60 400 0 c336 0 400 2 400 14 0
12 -55 14 -337 14 -186 1 -366 1 -400 1 l-63 1 0 31 c0 26 -2 29 -14 19 -8 -6
-12 -18 -9 -26 3 -7 -2 -17 -11 -20 -9 -4 -262 -7 -561 -8 l-545 -1 0 38 c0
39 -19 53 -21 15z m1136 -135 l-1 -58 -70 1 c-40 0 -103 10 -149 23 -113 31
-279 31 -385 0 -65 -20 -103 -23 -292 -26 l-218 -4 0 60 0 61 558 0 559 0 -2
-57z m-275 -47 c63 -13 59 -14 -134 -15 -110 0 -197 1 -195 4 10 9 116 23 189
23 41 1 104 -5 140 -12z m-622 -78 c0 -38 -6 -48 -70 -111 -38 -38 -87 -96
-109 -129 l-39 -61 0 171 0 172 109 0 110 0 -1 -42z m117 29 c-11 -7 -37 -24
-57 -36 l-38 -23 0 36 0 36 57 0 c51 0 55 -2 38 -13z m708 -18 c34 -17 65 -36
68 -41 3 -5 5 -93 4 -196 l-1 -187 -417 -3 c-421 -2 -423 -2 -418 31 3 19 -28
4 -32 -15 -2 -13 -5 59 -6 158 l-1 182 48 30 c111 72 108 72 415 72 l278 0 62
-31z m77 17 c0 -23 -13 -25 -45 -5 l-30 19 38 0 c26 0 37 -4 37 -14z m127
-166 c56 -54 102 -118 131 -178 16 -33 18 -50 13 -89 -1 -10 -33 -13 -126 -13
l-125 0 0 186 0 185 28 -19 c15 -11 50 -43 79 -72z m-1030 -115 l0 -165 -108
0 -109 0 0 31 c0 29 29 91 73 154 26 37 128 145 137 145 4 0 7 -74 7 -165z
m-7 -524 l0 -340 -32 -3 c-18 -2 -66 -2 -105 0 l-73 4 0 339 0 339 105 0 105
0 0 -339z m906 -1 l-1 -340 -22 -1 c-30 0 -744 0 -783 0 l-30 1 0 340 0 340
418 0 418 0 0 -340z m279 -2 c0 -332 0 -338 -20 -338 -39 -1 -210 -2 -222 -1
-10 1 -13 76 -13 341 l0 341 127 -3 128 -3 0 -337z m-1179 -435 c1 -72 0 -72
-79 11 -53 57 -49 66 31 56 l47 -5 1 -62z m31 -55 c-2 -24 -4 -5 -4 42 0 47 2
66 4 43 2 -24 2 -62 0 -85z"/>
</g>
</svg>
