<svg version="1.1" id="Layer_1" xmlns="http://www.w3.org/2000/svg" xmlns:xlink="http://www.w3.org/1999/xlink" x="0px" y="0px"
	 viewBox="0 0 288 48" enable-background="new 0 0 288 48" xml:space="preserve">
<path id="book" fill="#FFFFFF" d="M285.83,33.14l-25.7,8.8c-0.17,0.04-0.35,0.05-0.53,0.05c-0.92,0-1.78-0.51-2.36-1.3l-0.02,0.01
	l-2.63-4.07l0.01-0.01c-0.29-0.4-0.44-0.92-0.44-1.45l-0.01-0.08c-0.24-1.74,1.01-3.15,3.44-4.07l-1.02-1.29
	c-2.35,0.5-3.92,2.56-3.78,4l-7.46-11.44l0,0c-0.28-0.41-0.44-0.92-0.44-1.45l-0.01-0.08c-0.13-2.54,2.28-3.31,3.1-3.67l-1.08-1.35
	c-1.11,0.49-3.33,1.23-3.18,4.08l-0.94-1.47l0.19-0.14l-0.2,0.13c-0.39-0.56-0.6-1.25-0.6-1.96c0-1.36,0.77-2.54,1.85-2.96L265.98,6
	l18.7,19.79l-25.33,9.37c-0.89,0.52-1.81,1.85-1.81,3.19c0,1.35,0.98,2.57,2.07,2.57c0.09,0,0.19-0.01,0.29-0.02l23.74-8.14
	c-0.62-0.63-1.42-1.7-1.47-2.99c-0.05-1.16,0.51-2.25,1.66-3.22c0,0-0.68,1.31-0.58,3.18c0.08,1.56,1.74,2.8,1.75,2.81L285.83,33.14
	z"/>
<g id="brushes">
	<path id="right-brush" fill="#FFFFFF" d="M220.55,15.5l-10.73,26.89c0,0,0.1,2.42,2.05,1.08l12.15-26.27
		C224.02,17.2,221.89,17.68,220.55,15.5z M220.88,15.02c0,0,1.47,2.19,3.58,1.51l1.08-1.76c0,0-2.99-0.31-3.82-2.61L220.88,15.02z
		 M223.77,13.44c1.3,0.67,2.91,0.71,4.02-0.44c1.19-1.23,0.73-3.21,0.98-4.85c0.28-1.8,1.11-3.5,2.61-4.26
		c-0.12,0.06-0.51-0.02-0.65-0.02c-0.57,0-1.15,0.05-1.71,0.14c-1.72,0.26-3.46,0.9-4.85,1.97c-1.91,1.48-3.66,4.47-1.59,6.59
		C222.94,12.92,223.34,13.21,223.77,13.44z"/>
	<path id="left-brush" fill="#FFFFFF" d="M213.41,17.63l15.28,24.58c0,0,0.33,2.4-1.83,1.43l-16.58-23.73
		C210.29,19.91,212.47,20.01,213.41,17.63z M213,17.21c0,0-1.06,2.42-3.26,2.11l-1.37-1.54c0,0,2.89-0.83,3.31-3.24L213,17.21z
		 M209.87,16.16c-1.17,0.89-2.74,1.21-4.03,0.28c-1.39-1-1.28-3.03-1.82-4.6c-0.59-1.73-1.7-3.25-3.32-3.74
		c0.13,0.04,0.5-0.11,0.63-0.13c0.56-0.1,1.14-0.15,1.71-0.17c1.74-0.04,3.57,0.28,5.12,1.09c2.14,1.12,4.39,3.76,2.72,6.21
		C210.6,15.51,210.26,15.87,209.87,16.16z"/>
</g>
<path id="spotlight" fill="#FFFFFF" d="M190.98,13.49c-1.08-2.79-3.1-4.62-4.5-4.08v0l-1.86,0.72c-2.7-3.3-6.27-4.91-9.23-3.76
	c-0.01,0-0.01,0-0.01,0.01L166.3,9.9l-4.5,0.06l-12.38,4.8l0,0.01c-0.07,0.02-0.14,0.05-0.22,0.07c-4.7,1.82-6.26,9.08-3.49,16.21
	s8.81,11.43,13.51,9.61c0.07-0.03,0.14-0.06,0.21-0.09l0,0.01l7.95-3.08h4.39V42h4.02v-4.51h7.23v-7.76l1.24-0.48l0,0c0,0,0,0,0,0
	c2.96-1.15,4.51-4.74,4.27-9l1.86-0.72c0,0,0,0,0,0C191.81,18.99,192.07,16.28,190.98,13.49z M157.49,38.55
	c-3.37,1.31-7.93-2.33-10.18-8.12c-2.25-5.79-1.33-11.55,2.04-12.86c3.37-1.31,7.93,2.33,10.18,8.12
	C161.78,31.48,160.86,37.24,157.49,38.55z M184.47,20.15c0.15,0.39-0.04,0.83-0.43,0.98l-6.96,2.7c-0.09,0.03-0.18,0.05-0.27,0.05
	c-0.3,0-0.59-0.18-0.7-0.48c-0.15-0.39,0.04-0.83,0.43-0.98l6.96-2.7C183.88,19.57,184.32,19.76,184.47,20.15z M184.14,15.81
	c0.15,0.39-0.04,0.83-0.43,0.98l-6.97,2.7c-0.09,0.03-0.18,0.05-0.27,0.05c-0.3,0-0.59-0.18-0.7-0.48
	c-0.15-0.39,0.04-0.83,0.43-0.98l6.97-2.7C183.55,15.22,183.98,15.42,184.14,15.81z M170.82,12.82c-0.09,0.03-0.18,0.05-0.27,0.05
	c-0.3,0-0.59-0.18-0.7-0.48c-0.15-0.39,0.04-0.83,0.43-0.98l6.96-2.7c0.39-0.15,0.83,0.04,0.98,0.43c0.15,0.39-0.04,0.83-0.43,0.98
	L170.82,12.82z M173.78,16.1c-0.3,0-0.59-0.18-0.7-0.48c-0.15-0.39,0.04-0.83,0.43-0.98l6.97-2.7c0.39-0.15,0.83,0.04,0.98,0.43
	c0.15,0.39-0.04,0.83-0.43,0.98l-6.97,2.7C173.97,16.08,173.88,16.1,173.78,16.1z M179,33.47h-4.6l0.77-0.69L179,31.3V33.47z
	 M184.14,25.57l-6.96,2.7c-0.09,0.03-0.18,0.05-0.27,0.05c-0.3,0-0.59-0.18-0.7-0.48c-0.15-0.39,0.04-0.83,0.43-0.98l6.96-2.7
	c0.39-0.15,0.83,0.04,0.98,0.43C184.72,24.98,184.53,25.42,184.14,25.57z"/>
<path id="rockon" fill="#FFFFFF" d="M123.73,21.63c0.03,0.01,0.06,0.02,0.09,0.04c0.05,0.02,0.1,0.04,0.15,0.06
	c0.03,0.01,0.05,0.03,0.08,0.04c0.07,0.04,0.14,0.08,0.21,0.13c0,0,0,0,0,0v-0.42l0,0v-2.91c0-1.02-0.84-1.86-1.86-1.86
	c-1.02,0-1.86,0.84-1.86,1.86v2.72l2.67,0.23C123.39,21.54,123.56,21.57,123.73,21.63z M117.22,21.02l0.03,0c0.07,0,0.13,0,0.2,0.01
	l0.13,0.01c0.03,0,0.05,0,0.07,0c0.01,0,0.02,0,0.02,0l2.26,0.2V16.9c0-1.02-0.84-1.86-1.86-1.86s-1.86,0.84-1.86,1.86v4.32
	c0.26-0.09,0.53-0.16,0.81-0.18C117.08,21.03,117.15,21.02,117.22,21.02z M114.85,22.2c0.21-0.27,0.47-0.5,0.76-0.68V7.86
	c0-1.02-0.84-1.86-1.86-1.86c-1.02,0-1.86,0.84-1.86,1.86v19.12l2.58-4.17C114.58,22.59,114.7,22.39,114.85,22.2z M112.01,32.77
	c0,0,0.02,0.02,0.05,0.04l3.34,3.23L113.68,42h13.86l-0.6-6.36l1.9-7.89c0.1-0.33,0.16-0.69,0.16-1.05c0-0.31-0.04-0.6-0.12-0.89
	v-0.02c-0.11-0.5-0.22-0.99-0.33-1.49c-0.2-0.89-0.38-1.78-0.6-2.67c-0.12-0.46-0.19-0.92-0.24-1.38c-0.1-1.02-0.06-2.04-0.06-3.07
	c0-1.36,0-4.67,0-4.97c0-0.77-0.63-1.4-1.4-1.4c-0.77,0-1.4,0.63-1.4,1.4c0,0,0,9.42,0,10.32c0.16,0.26,0.26,0.56,0.29,0.87
	c0,0.02,0.01,0.04,0.01,0.07c0.01,0.11,0.01,0.22,0,0.33c-0.04,0.56-0.3,1.08-0.73,1.45c-0.1,0.09-0.22,0.17-0.33,0.23
	c-0.02,0.01-0.04,0.02-0.06,0.03c-0.04,0.02-0.07,0.04-0.11,0.06c-0.02,0.01-0.05,0.02-0.07,0.03c-0.04,0.01-0.07,0.03-0.11,0.04
	c-0.03,0.01-0.05,0.02-0.08,0.03c-0.04,0.01-0.07,0.02-0.11,0.03c-0.03,0.01-0.05,0.01-0.08,0.02c-0.04,0.01-0.08,0.01-0.12,0.02
	c-0.03,0-0.05,0.01-0.08,0.01c-0.04,0-0.09,0.01-0.13,0.01c-0.02,0-0.04,0-0.06,0c-0.07,0-0.13,0-0.2-0.01l-4-0.32l-1.23,1.68
	c0.36-0.08,2.37-0.49,4.32,0.17c0.09,0.03,0.18,0.06,0.26,0.1c0.01,0,0.02,0.01,0.03,0.01c0.08,0.03,0.15,0.06,0.23,0.1
	c0.02,0.01,0.03,0.02,0.05,0.02c0.07,0.03,0.14,0.06,0.21,0.1c0.02,0.01,0.05,0.02,0.07,0.04c0.06,0.03,0.12,0.07,0.19,0.1
	c0.03,0.02,0.05,0.03,0.08,0.05c0.06,0.03,0.11,0.07,0.17,0.11c0.03,0.02,0.06,0.04,0.09,0.06c0.05,0.04,0.11,0.08,0.16,0.12
	c0.03,0.02,0.06,0.04,0.09,0.06c0.06,0.04,0.11,0.09,0.16,0.13c0.03,0.02,0.05,0.04,0.08,0.06c0.08,0.07,0.16,0.14,0.23,0.21
	c0.1,0.1,0.1,0.27,0,0.37c0,0,0,0,0,0c-0.05,0.05-0.12,0.08-0.18,0.08c0,0,0,0,0,0c-0.03,0-0.06-0.01-0.1-0.02
	c-0.03-0.01-0.06-0.03-0.09-0.06c-0.11-0.11-0.22-0.2-0.33-0.3c-0.02-0.01-0.04-0.03-0.05-0.04c-0.11-0.09-0.22-0.17-0.34-0.25
	c-0.02-0.01-0.03-0.02-0.05-0.03c-2.19-1.4-5.05-0.7-5.18-0.67l-0.65,0.16c-0.11,0.03-0.22-0.02-0.28-0.11
	c-0.06-0.09-0.06-0.21,0.01-0.3l1.39-1.9l0.36-0.49c0.05-0.07,0.14-0.11,0.23-0.11l0.62,0.05l1.15,0.09l2.38,0.19
	c0.42,0.03,0.83-0.1,1.16-0.38c0.06-0.05,0.12-0.11,0.17-0.18c0,0,0,0,0,0c0.22-0.26,0.35-0.57,0.38-0.91c0-0.06,0.01-0.12,0-0.18
	c0-0.02,0-0.03,0-0.05c0-0.01,0-0.02,0-0.03c0-0.03-0.01-0.06-0.01-0.1c0-0.02-0.01-0.04-0.01-0.06c0-0.02-0.01-0.04-0.01-0.07
	c0,0,0,0,0,0c0-0.02-0.01-0.04-0.02-0.06c0-0.02-0.01-0.03-0.01-0.05c-0.06-0.2-0.17-0.39-0.31-0.56c0,0,0,0,0,0
	c-0.28-0.32-0.66-0.52-1.09-0.55l-2.62-0.23l-2.93-0.26c-0.01,0-0.02,0-0.03,0c-0.02,0-0.03,0-0.04,0l-0.13-0.01
	c-0.05,0-0.1,0-0.15,0c-0.08,0-0.13,0.01-0.18,0.01c-0.08,0.01-0.16,0.02-0.24,0.03c-0.04,0.01-0.09,0.02-0.13,0.03
	c-0.03,0.01-0.06,0.01-0.09,0.02c-0.06,0.02-0.12,0.03-0.17,0.05c-0.01,0-0.02,0.01-0.04,0.01c-0.06,0.02-0.13,0.05-0.19,0.08l0,0
	c-0.3,0.13-0.56,0.32-0.79,0.55c-0.06,0.06-0.11,0.12-0.17,0.19c-0.13,0.16-0.23,0.34-0.32,0.52c0,0.01-0.01,0.02-0.01,0.03
	l-3.52,5.69c-0.08,0.14-0.15,0.31-0.2,0.49c-0.14,0.39-0.21,0.77-0.21,1.15c0,0.88,0.35,1.71,0.97,2.33
	C111.99,32.73,112,32.75,112.01,32.77z"/>
<path id="todo" fill="#FFFFFF" d="M84.53,16.46H69.71c-1.05,0-1.9-0.85-1.9-1.9c0-1.05,0.85-1.9,1.9-1.9h14.82
	c1.05,0,1.9,0.85,1.9,1.9C86.43,15.61,85.57,16.46,84.53,16.46z M62.37,17.04h-2.89c-1.05,0-1.9-0.85-1.9-1.9V13.9
	c0-1.05,0.85-1.9,1.9-1.9h2.89c1.05,0,1.9,0.85,1.9,1.9v1.24C64.27,16.19,63.42,17.04,62.37,17.04z M84.53,25.9H69.71
	c-1.05,0-1.9-0.85-1.9-1.9c0-1.05,0.85-1.9,1.9-1.9h14.82c1.05,0,1.9,0.85,1.9,1.9C86.43,25.05,85.57,25.9,84.53,25.9z M62.37,26.52
	h-2.89c-1.05,0-1.9-0.85-1.9-1.9v-1.24c0-1.05,0.85-1.9,1.9-1.9h2.89c1.05,0,1.9,0.85,1.9,1.9v1.24
	C64.27,25.67,63.42,26.52,62.37,26.52z M84.53,35.38H69.71c-1.05,0-1.9-0.85-1.9-1.9c0-1.05,0.85-1.9,1.9-1.9h14.82
	c1.05,0,1.9,0.85,1.9,1.9C86.43,34.53,85.57,35.38,84.53,35.38z M62.37,36h-2.89c-1.05,0-1.9-0.85-1.9-1.9v-1.24
	c0-1.05,0.85-1.9,1.9-1.9h2.89c1.05,0,1.9,0.85,1.9,1.9v1.24C64.27,35.15,63.42,36,62.37,36z"/>
<path id="bee" fill="#FFFFFF" d="M24.58,27.94c0.06-0.5,0.12-0.97,0.16-1.44c0.2-2.52,0.17-5.04-0.17-7.55
	c-0.4-2.98-1.17-5.86-2.68-8.49c-0.69-1.2-1.5-2.31-2.51-3.26c-1.58-1.47-3.68-1.72-5.56-0.02c-1.31,1.19-2.06,2.69-2.35,4.41
	c-0.43,2.52,0.19,4.84,1.32,7.08c1.56,3.11,4.01,5.36,6.91,7.17c1.42,0.89,2.95,1.57,4.56,2.03C24.35,27.89,24.45,27.91,24.58,27.94
	z M33.68,38.37c-1.55-0.54-2.84-1.48-4-2.61c-1.54-1.52-2.38-3.32-2.21-5.53c0.15-1.94,1.12-3.31,2.85-4.15
	c1.29-0.63,2.54-0.52,3.71,0.3c0.47,0.33,0.92,0.72,1.31,1.14c1.14,1.25,2.18,2.59,2.8,4.2c0.55,1.46,0.77,2.96,0.37,4.49
	c-0.41,1.57-1.59,2.5-3.14,2.56C34.81,38.64,34.23,38.56,33.68,38.37z M37.17,32.01c-0.08-0.86-0.82-1.72-1.65-1.93
	c-0.73-0.18-1.25,0.19-1.32,0.93c-0.09,1,0.97,2.18,1.98,2.18C36.83,33.19,37.24,32.72,37.17,32.01z M24.02,40.79
	c-1.65-1.51-2.79-3.26-3.45-5.31c-0.66-2.04-0.8-4.13-0.49-6.31c-0.34,0.02-0.65,0.02-0.96,0.05c-0.86,0.09-1.69,0.3-2.49,0.62
	c-0.14,0.06-0.27,0.11-0.27,0.31c-0.1,2.52,0.09,5,0.87,7.41c0.48,1.48,1.19,2.85,2.31,3.98c0.36,0.37,0.71,0.57,1.25,0.37
	c0.82-0.29,1.68-0.5,2.51-0.77C23.54,41.08,23.74,40.93,24.02,40.79z M22.92,29.28c-0.02,0.78-0.08,1.5-0.06,2.22
	c0.04,1.31,0.27,2.58,0.77,3.8c0.57,1.4,1.39,2.63,2.54,3.63c0.3,0.26,0.3,0.25,0.56-0.03c0.66-0.71,1.26-1.46,1.66-2.35
	c0.11-0.23,0.09-0.37-0.11-0.56c-1.14-1.08-1.74-2.45-1.98-3.98c-0.07-0.45-0.08-0.91-0.13-1.37c-0.01-0.1-0.05-0.24-0.13-0.29
	C25.11,29.79,24.08,29.49,22.92,29.28z M13.23,31.69c-0.43,0.53-0.88,1.05-1.28,1.6c-0.65,0.9-1.17,1.86-1.34,2.97
	c-0.2,1.28,0.18,2.38,1.07,3.3c1.18,1.21,2.67,1.85,4.27,2.27c0.02,0.01,0.05-0.01,0.11-0.02c-2.21-3.02-2.89-6.43-2.75-10.07
	C13.29,31.72,13.26,31.7,13.23,31.69z M34.93,23.86c0.14-0.5,0.25-1.01,0.43-1.5c0.71-1.92,1.96-3.46,3.45-4.82
	c0.07-0.07,0.18-0.09,0.28-0.13c0.51-0.21,1.04-0.39,1.52-0.65c0.25-0.13,0.45-0.38,0.62-0.61c0.19-0.26,0.14-0.61-0.06-0.83
	c-0.23-0.24-0.52-0.38-0.83-0.23c-0.29,0.13-0.58,0.32-0.78,0.55c-0.32,0.37-0.57,0.81-0.85,1.22c-0.06,0.09-0.13,0.2-0.21,0.26
	c-1.51,1.1-2.5,2.58-3.23,4.27c-0.55,1.26-0.9,2.57-1.12,3.92c-0.01,0.07,0,0.14,0,0.28c0.09-0.11,0.15-0.17,0.2-0.23
	c1.61-2.15,3.74-3.45,6.4-3.86c0.21-0.03,0.42-0.05,0.63-0.06c0.33-0.01,0.63,0.01,0.95,0.18c0.61,0.31,1.27,0.28,1.88-0.03
	c0.16-0.08,0.35-0.31,0.35-0.46c0-0.16-0.19-0.37-0.35-0.46c-0.68-0.4-1.64-0.28-2.26,0.24c-0.06,0.05-0.15,0.07-0.23,0.07
	c-2.52,0.03-4.62,1.06-6.45,2.71c-0.07,0.06-0.14,0.13-0.21,0.19c-0.01,0.01-0.02,0.01-0.03,0.01
	C34.99,23.88,34.96,23.87,34.93,23.86z M10.23,38.75c-0.12-0.58-0.23-1.1-0.34-1.68c-2.15,1.04-4.29,2.08-6.44,3.12
	c0.01,0.03,0.02,0.06,0.03,0.09C5.73,39.77,7.99,39.26,10.23,38.75z"/>
</svg>
