<?xml version="1.0" encoding="UTF-8" standalone="no"?>
<svg width="225px" height="20px" viewBox="0 0 225 20" version="1.1" xmlns="http://www.w3.org/2000/svg" xmlns:xlink="http://www.w3.org/1999/xlink" xmlns:sketch="http://www.bohemiancoding.com/sketch/ns">
    <title>logo-goes-here</title>
    <description>Created with Sketch (http://www.bohemiancoding.com/sketch)</description>
    <defs></defs>
    <g id="Page-1" stroke="none" stroke-width="1" fill="none" fill-rule="evenodd" sketch:type="MSPage">
        <g id="LOGO-GOES-HERE" sketch:type="MSLayerGroup" transform="translate(-1.000000, -5.000000)" fill="#000000">
            <path d="M1.89131138,6.19015113 L4.30394578,6.19015113 L4.30394578,21.8783366 L13.3240462,21.8783366 L13.3240462,24 L1.89131138,24 L1.89131138,6.19015113 Z M30.3700963,8.73614723 C31.5501511,10.3122479 32.1401697,12.3288183 32.1401697,14.7859189 C32.1401697,17.4450837 31.4652855,19.6556328 30.1154967,21.4176325 C28.5313134,23.4867699 26.2722696,24.521323 23.3382975,24.521323 C20.5983071,24.521323 18.4443351,23.616089 16.876317,21.8055938 C15.4780328,20.0597592 14.7789011,17.8532513 14.7789011,15.186004 C14.7789011,12.7773988 15.3770022,10.716375 16.5732222,9.00287063 C18.1089101,6.80441222 20.3800775,5.7051995 23.3867927,5.7051995 C26.5309115,5.7051995 28.8586561,6.7155053 30.3700963,8.73614723 Z M28.242371,20.0779536 C29.1920727,18.5543896 29.6669164,16.8025194 29.6669164,14.8222903 C29.6669164,12.7289052 29.1193306,11.0437152 28.0241427,9.76666946 C26.9289548,8.48962376 25.4316816,7.85111049 23.5322782,7.85111049 C21.6894527,7.85111049 20.1861177,8.48356193 19.022228,9.74848377 C17.8583382,11.0134056 17.2764021,12.8784301 17.2764021,15.3436133 C17.2764021,17.3157598 17.7754931,18.9787232 18.7736902,20.3325532 C19.7718874,21.6863833 21.3903973,22.3632882 23.6292685,22.3632882 C25.7549838,22.3632882 27.2926693,21.6015176 28.242371,20.0779536 Z M47.0524326,6.69935035 C48.8225149,7.62884564 49.9055627,9.2574586 50.3016085,11.5852381 L47.9132217,11.5852381 C47.6222493,10.2839447 47.020107,9.33627785 46.1067769,8.74220912 C45.1934467,8.1481404 44.0416981,7.85111049 42.6514965,7.85111049 C41.0026527,7.85111049 39.6144925,8.46941764 38.4869743,9.7060505 C37.3594561,10.9426834 36.7957055,12.7854812 36.7957055,15.2344992 C36.7957055,17.3521319 37.2604461,19.0757136 38.1899414,20.405296 C39.1194367,21.7348784 40.6348954,22.3996596 42.736363,22.3996596 C44.344794,22.3996596 45.676377,21.9328983 46.7311521,20.9993617 C47.7859272,20.0658252 48.3254305,18.5564283 48.3496782,16.4711258 L42.7727344,16.4711258 L42.7727344,14.4707003 L50.5925795,14.4707003 L50.5925795,24 L49.0407343,24 L48.4587923,21.7086035 C47.642453,22.6057685 46.919074,23.2281169 46.2886337,23.5756673 C45.2298174,24.1737773 43.88409,24.4728278 42.2514114,24.4728278 C40.1418612,24.4728278 38.327352,23.7898611 36.8078292,22.4239072 C35.1509029,20.7104028 34.3224521,18.3584109 34.3224521,15.3678609 C34.3224521,12.3853934 35.1306967,10.0131953 36.7472103,8.25119559 C38.2828981,6.57002151 40.27118,5.72944708 42.7121154,5.72944708 C44.3852069,5.72944708 45.8319648,6.05274494 47.0524326,6.69935035 Z M68.9964941,8.73614723 C70.176549,10.3122479 70.7665676,12.3288183 70.7665676,14.7859189 C70.7665676,17.4450837 70.0916833,19.6556328 68.7418945,21.4176325 C67.1577113,23.4867699 64.8986675,24.521323 61.9646954,24.521323 C59.224705,24.521323 57.070733,23.616089 55.5027148,21.8055938 C54.1044306,20.0597592 53.405299,17.8532513 53.405299,15.186004 C53.405299,12.7773988 54.0034001,10.716375 55.1996201,9.00287063 C56.7353079,6.80441222 59.0064754,5.7051995 62.0131906,5.7051995 C65.1573094,5.7051995 67.485054,6.7155053 68.9964941,8.73614723 Z M66.8687688,20.0779536 C67.8184705,18.5543896 68.2933143,16.8025194 68.2933143,14.8222903 C68.2933143,12.7289052 67.7457285,11.0437152 66.6505406,9.76666946 C65.5553527,8.48962376 64.0580795,7.85111049 62.1586761,7.85111049 C60.3158506,7.85111049 58.8125156,8.48356193 57.6486258,9.74848377 C56.4847361,11.0134056 55.9027999,12.8784301 55.9027999,15.3436133 C55.9027999,17.3157598 56.401891,18.9787232 57.4000881,20.3325532 C58.3982852,21.6863833 60.0167951,22.3632882 62.2556664,22.3632882 C64.3813817,22.3632882 65.9190671,21.6015176 66.8687688,20.0779536 Z M92.5772675,6.69935035 C94.3473498,7.62884564 95.4303976,9.2574586 95.8264435,11.5852381 L93.4380566,11.5852381 C93.1470842,10.2839447 92.5449419,9.33627785 91.6316118,8.74220912 C90.7182816,8.1481404 89.566533,7.85111049 88.1763314,7.85111049 C86.5274876,7.85111049 85.1393274,8.46941764 84.0118092,9.7060505 C82.884291,10.9426834 82.3205404,12.7854812 82.3205404,15.2344992 C82.3205404,17.3521319 82.785281,19.0757136 83.7147763,20.405296 C84.6442716,21.7348784 86.1597303,22.3996596 88.2611979,22.3996596 C89.8696289,22.3996596 91.2012119,21.9328983 92.255987,20.9993617 C93.3107621,20.0658252 93.8502654,18.5564283 93.8745131,16.4711258 L88.2975693,16.4711258 L88.2975693,14.4707003 L96.1174144,14.4707003 L96.1174144,24 L94.5655692,24 L93.9836272,21.7086035 C93.1672879,22.6057685 92.4439089,23.2281169 91.8134687,23.5756673 C90.7546523,24.1737773 89.408925,24.4728278 87.7762463,24.4728278 C85.6666961,24.4728278 83.8521869,23.7898611 82.3326642,22.4239072 C80.6757378,20.7104028 79.847287,18.3584109 79.847287,15.3678609 C79.847287,12.3853934 80.6555317,10.0131953 82.2720452,8.25119559 C83.8077331,6.57002151 85.7960149,5.72944708 88.2369503,5.72944708 C89.9100418,5.72944708 91.3567998,6.05274494 92.5772675,6.69935035 Z M114.521329,8.73614723 C115.701384,10.3122479 116.291403,12.3288183 116.291403,14.7859189 C116.291403,17.4450837 115.616518,19.6556328 114.266729,21.4176325 C112.682546,23.4867699 110.423502,24.521323 107.48953,24.521323 C104.74954,24.521323 102.595568,23.616089 101.02755,21.8055938 C99.6292655,20.0597592 98.9301339,17.8532513 98.9301339,15.186004 C98.9301339,12.7773988 99.528235,10.716375 100.724455,9.00287063 C102.260143,6.80441222 104.53131,5.7051995 107.538025,5.7051995 C110.682144,5.7051995 113.009889,6.7155053 114.521329,8.73614723 Z M112.393604,20.0779536 C113.343305,18.5543896 113.818149,16.8025194 113.818149,14.8222903 C113.818149,12.7289052 113.270563,11.0437152 112.175376,9.76666946 C111.080188,8.48962376 109.582914,7.85111049 107.683511,7.85111049 C105.840686,7.85111049 104.33735,8.48356193 103.173461,9.74848377 C102.009571,11.0134056 101.427635,12.8784301 101.427635,15.3436133 C101.427635,17.3157598 101.926726,18.9787232 102.924923,20.3325532 C103.92312,21.6863833 105.54163,22.3632882 107.780501,22.3632882 C109.906217,22.3632882 111.443902,21.6015176 112.393604,20.0779536 Z M119.395093,6.19015113 L132.379673,6.19015113 L132.379673,8.3724335 L121.747108,8.3724335 L121.747108,13.7796443 L131.579503,13.7796443 L131.579503,15.8406887 L121.747108,15.8406887 L121.747108,21.8783366 L132.56153,21.8783366 L132.56153,24 L119.395093,24 L119.395093,6.19015113 Z M137.301932,18.2533231 C137.35851,19.2636441 137.596942,20.0840124 138.017236,20.7144527 C138.81741,21.8945075 140.227797,22.4845261 142.248439,22.4845261 C143.153686,22.4845261 143.978096,22.355207 144.721692,22.0965648 C146.160389,21.5954456 146.879727,20.6982941 146.879727,19.4050832 C146.879727,18.4351751 146.576635,17.7441259 145.970443,17.331915 C145.356168,16.9277866 144.394356,16.5762002 143.08498,16.2771452 L140.672346,15.7315746 C139.096245,15.3759416 137.980868,14.983943 137.32618,14.5555669 C136.19462,13.8119706 135.628849,12.7006343 135.628849,11.2215244 C135.628849,9.62117596 136.182497,8.30777841 137.289808,7.28129232 C138.39712,6.25480622 139.965115,5.74157087 141.993839,5.74157087 C143.860912,5.74157087 145.447093,6.19216726 146.752427,7.09337356 C148.057762,7.99457986 148.710419,9.43527594 148.710419,11.415505 L146.443271,11.415505 C146.322032,10.461762 146.063394,9.73030063 145.667348,9.22109887 C144.931834,8.29160358 143.683096,7.82686291 141.921097,7.82686291 C140.498565,7.82686291 139.476135,8.12591343 138.853777,8.72402344 C138.23142,9.32213345 137.920246,10.0172238 137.920246,10.8093155 C137.920246,11.6822328 138.283956,12.3207461 139.011387,12.7248744 C139.488258,12.9835166 140.567265,13.3068145 142.248439,13.6947777 L144.74594,14.2645959 C145.950242,14.5394032 146.879724,14.915237 147.534412,15.3921084 C148.665971,16.2246129 149.231742,17.4329387 149.231742,19.0171219 C149.231742,20.9892684 148.514425,22.3996554 147.07977,23.248325 C145.645114,24.0969946 143.978109,24.521323 142.078706,24.521323 C139.864082,24.521323 138.130398,23.9555518 136.8776,22.8239923 C135.624802,21.7005154 135.010536,20.1769742 135.034783,18.2533231 L137.301932,18.2533231 Z M159.245994,6.19015113 L161.682876,6.19015113 L161.682876,13.5492922 L170.945452,13.5492922 L170.945452,6.19015113 L173.382334,6.19015113 L173.382334,24 L170.945452,24 L170.945452,15.6709556 L161.682876,15.6709556 L161.682876,24 L159.245994,24 L159.245994,6.19015113 Z M177.346814,6.19015113 L190.331394,6.19015113 L190.331394,8.3724335 L179.698829,8.3724335 L179.698829,13.7796443 L189.531223,13.7796443 L189.531223,15.8406887 L179.698829,15.8406887 L179.698829,21.8783366 L190.513251,21.8783366 L190.513251,24 L177.346814,24 L177.346814,6.19015113 Z M193.968531,6.19015113 L202.212709,6.19015113 C203.57058,6.19015113 204.689999,6.38817107 205.570999,6.78421689 C207.24409,7.54397825 208.080624,8.94628271 208.080624,10.9911723 C208.080624,12.0580713 207.860377,12.9309755 207.419877,13.6099112 C206.979377,14.2888469 206.363091,14.834412 205.570999,15.246623 C206.2661,15.5295128 206.789438,15.9013054 207.14103,16.3620117 C207.492622,16.8227181 207.688621,17.5703444 207.729034,18.604913 L207.8139,20.9932999 C207.838148,21.6722355 207.894725,22.1773884 207.983633,22.5087737 C208.129119,23.0745535 208.387758,23.4382635 208.759556,23.5999149 L208.759556,24 L205.801351,24 C205.720525,23.8464312 205.655866,23.6484113 205.60737,23.4059342 C205.558875,23.1634572 205.518463,22.6946753 205.486132,21.9995745 L205.340647,19.0292457 C205.284069,17.865356 204.851658,17.0853999 204.043401,16.6893541 C203.582695,16.4711247 202.859316,16.3620117 201.873243,16.3620117 L196.381165,16.3620117 L196.381165,24 L193.968531,24 L193.968531,6.19015113 Z M201.958109,14.3494624 C203.089669,14.3494624 203.9848,14.1231539 204.643529,13.6705301 C205.302258,13.2179063 205.631618,12.4015793 205.631618,11.2215244 C205.631618,9.95256124 205.170918,9.08773947 204.249506,8.62703311 C203.756469,8.38455608 203.09775,8.26331938 202.273328,8.26331938 L196.381165,8.26331938 L196.381165,14.3494624 L201.958109,14.3494624 Z M211.838999,6.19015113 L224.823579,6.19015113 L224.823579,8.3724335 L214.191014,8.3724335 L214.191014,13.7796443 L224.023409,13.7796443 L224.023409,15.8406887 L214.191014,15.8406887 L214.191014,21.8783366 L225.005436,21.8783366 L225.005436,24 L211.838999,24 L211.838999,6.19015113 Z" sketch:type="MSShapeGroup"></path>
        </g>
    </g>
</svg>