<svg id="nyc-pros-logo" data-name="Layer 1" xmlns="http://www.w3.org/2000/svg" viewBox="0 0 200 76.94"><defs><style>.cls-1{fill:#E8E8D5;}.cls-1,.cls-2{stroke:#7E8184;stroke-width:0.74px;}.cls-2{fill:none;}.cls-3{fill:#7E8184;}</style></defs><title>nyc-pros</title><g id="Logo"><path id="logo-fill" data-name="Logo Fill" class="cls-1" d="M34.08,49.07H32.95V27h1.13v22.1Zm0.11,6.29a27.08,27.08,0,0,1-3.95-3.3,31,31,0,0,1-2.52-3l-2.31.06V60.42h8.79V55.37Z" transform="translate(-5 -5)"/><path id="logo-lines" data-name="Logo Lines" class="cls-2" d="M23.27,34.88a24.69,24.69,0,1,1,49.37,0M5,7.31H88.18M11.52,26.92h66M17,49.09h83.2m-95,11.37H74.34M25.47,5V67m44.77-53.1V56.8M61.43,5.46V49m-39-37.21H80.31M34.16,25.65v56.3M33,11.91V76.37" transform="translate(-5 -5)"/></g><path id="TAGLINE" class="cls-3" d="M89.77,51.44a1,1,0,0,0,0,.48,7.78,7.78,0,0,0-1.28-.08V53h0.58a5,5,0,0,0,.68,0,1.78,1.78,0,0,0,0,.24,1.74,1.74,0,0,0,0,.24,5.18,5.18,0,0,0-.68-0.05H88.49v1.41a10.52,10.52,0,0,0,1.28-.08,1.81,1.81,0,0,0,0,.24,1.83,1.83,0,0,0,0,.24H87.65V51.44h2.12Zm2.39,0.72a0.66,0.66,0,0,0-.64-0.48,0.52,0.52,0,0,0-.61.54c0,0.75,1.69.61,1.69,1.88a1.31,1.31,0,0,1-1.47,1.22,1.69,1.69,0,0,1-.9-0.24,5.26,5.26,0,0,0,.16-0.71H90.5a0.75,0.75,0,0,0,.77.61,0.59,0.59,0,0,0,.65-0.58c0-.89-1.66-0.57-1.66-1.91a1.15,1.15,0,0,1,1.28-1.17,1.44,1.44,0,0,1,.88.27c-0.07.18-.12,0.36-0.18,0.55H92.16Zm2.6,3.1-0.42,0-0.42,0V51.83a7.73,7.73,0,0,0-1,.08,1.66,1.66,0,0,0,0-.24,1.71,1.71,0,0,0,0-.23h2.86a1.71,1.71,0,0,0,0,.23,1.66,1.66,0,0,0,0,.24,8.51,8.51,0,0,0-1-.08v3.42Zm1.59-3.81,0.42,0,0.42,0v1.51L98,53l0.85,0V51.44l0.42,0,0.42,0v3.81l-0.42,0-0.42,0V53.39l-0.85,0-0.85,0v1.86l-0.42,0-0.42,0V51.44Zm6.4,0a1,1,0,0,0,0,.48,7.79,7.79,0,0,0-1.28-.08V53H102a5,5,0,0,0,.68,0,1.78,1.78,0,0,0,0,.24,1.74,1.74,0,0,0,0,.24,5.19,5.19,0,0,0-.68-0.05h-0.58v1.41a10.52,10.52,0,0,0,1.28-.08,1.76,1.76,0,0,0,0,.24,1.78,1.78,0,0,0,0,.24h-2.12V51.44h2.12ZM105,55.25l-0.42,0-0.42,0V51.83a7.73,7.73,0,0,0-1,.08,1.53,1.53,0,0,0,0-.24,1.57,1.57,0,0,0,0-.23h2.86a1.76,1.76,0,0,0,0,.23,1.7,1.7,0,0,0,0,.24,8.47,8.47,0,0,0-1-.08v3.42Zm1.62-3.81,0.42,0,0.42,0v3.81l-0.42,0-0.42,0V51.44Zm4.8,3.17-0.12.48a2.43,2.43,0,0,1-1.1.24,1.91,1.91,0,0,1-2.09-1.87,2,2,0,0,1,2.21-2.11,2.49,2.49,0,0,1,1.13.27c0,0.19-.08.38-0.13,0.57H111.2a1.16,1.16,0,0,0-.92-0.51,1.47,1.47,0,0,0-1.3,1.7A1.38,1.38,0,0,0,110.3,55a1.56,1.56,0,0,0,1-.42Zm2.93-.86,0.52-1.29,0.49,1.29h-1Zm1.14,0.34c0.15,0.37.27,0.75,0.39,1.16l0.48,0,0.48,0-1.55-3.86-0.21,0-0.21,0-1.59,3.85,0.27,0,0.26,0c0.11-.38.24-0.73,0.39-1.15h1.3Zm1.89-2.65h0.55c0.79,0.86,1.62,1.71,2.4,2.6v-2.6l0.22,0,0.22,0v3.81h-0.47c-0.64-.72-1.24-1.4-1.87-2.06l-0.61-.63v2.69l-0.22,0-0.22,0v-3.8Zm5.16,0.32H123a1.21,1.21,0,0,1,1.28,1.46c0,1.3-.58,1.68-1.35,1.68H122.5V51.76Zm-0.83-.32v3.79h1.56a1.91,1.91,0,0,0,2-2,1.64,1.64,0,0,0-1.68-1.78h-1.9Zm6.65,0.3c0.34,0,.76,0,0.84.42a1.39,1.39,0,0,1,0,.28,0.7,0.7,0,0,1-.87.79V51.74Zm-0.83,3.51,0.42,0,0.42,0V53.47h0l0.36,0.62,0.66,1.17,0.5,0,0.51,0-0.22-.35c-0.33-.52-0.68-1-1-1.56a1,1,0,0,0,.87-1,0.83,0.83,0,0,0-.48-0.79,2.21,2.21,0,0,0-.9-0.11h-1.18v3.81ZM133,51.44a1.08,1.08,0,0,0,0,.48,7.78,7.78,0,0,0-1.28-.08V53h0.58a5,5,0,0,0,.68,0,1.83,1.83,0,0,0,0,.24,1.79,1.79,0,0,0,0,.24,5.17,5.17,0,0,0-.68-0.05h-0.58v1.41a10.51,10.51,0,0,0,1.28-.08,1.71,1.71,0,0,0,0,.24,1.72,1.72,0,0,0,0,.24h-2.12V51.44H133Zm3.69,3.17-0.12.48a2.42,2.42,0,0,1-1.1.24,1.91,1.91,0,0,1-2.09-1.87,2,2,0,0,1,2.21-2.11,2.5,2.5,0,0,1,1.13.27c0,0.19-.08.38-0.13,0.57h-0.08a1.16,1.16,0,0,0-.92-0.51,1.47,1.47,0,0,0-1.3,1.7A1.38,1.38,0,0,0,135.63,55a1.56,1.56,0,0,0,1-.42Zm2.6-2.93a1.34,1.34,0,0,1,1.17,1.54c0,0.92-.38,1.78-1.24,1.78a1.29,1.29,0,0,1-1.16-1.49C138.06,52.26,138.52,51.67,139.3,51.67Zm2.09,1.65a1.88,1.88,0,0,0-2.06-2,2,2,0,0,0-2.19,2,1.87,1.87,0,0,0,2.05,2A2,2,0,0,0,141.39,53.32ZM142,51.44h0.55c0.79,0.86,1.62,1.71,2.4,2.6v-2.6l0.22,0,0.22,0v3.81H145c-0.64-.72-1.24-1.4-1.87-2.06l-0.61-.63v2.69l-0.22,0-0.22,0v-3.8Zm6,0.72a0.67,0.67,0,0,0-.64-0.48,0.52,0.52,0,0,0-.61.54c0,0.75,1.69.61,1.69,1.88A1.31,1.31,0,0,1,147,55.32a1.68,1.68,0,0,1-.89-0.24,5.32,5.32,0,0,0,.16-0.71h0.11a0.75,0.75,0,0,0,.77.61,0.59,0.59,0,0,0,.65-0.58c0-.89-1.66-0.57-1.66-1.91a1.15,1.15,0,0,1,1.28-1.17,1.44,1.44,0,0,1,.88.27c-0.07.18-.12,0.36-0.18,0.55h-0.08Zm2.59,3.1-0.42,0-0.42,0V51.83a7.72,7.72,0,0,0-1,.08,1.5,1.5,0,0,0,0-.24,1.54,1.54,0,0,0,0-.23h2.86a1.45,1.45,0,0,0,0,.23,1.42,1.42,0,0,0,0,.24,8.52,8.52,0,0,0-1-.08v3.42ZM153,51.74c0.34,0,.76,0,0.84.42a1.38,1.38,0,0,1,0,.28,0.7,0.7,0,0,1-.87.79V51.74Zm-0.83,3.51,0.42,0,0.42,0V53.47h0l0.36,0.62,0.66,1.17,0.5,0,0.51,0-0.22-.35c-0.33-.52-0.68-1-1-1.56a1,1,0,0,0,.87-1,0.83,0.83,0,0,0-.48-0.79,2.22,2.22,0,0,0-.9-0.11h-1.18v3.81Zm3.47-3.81,0.42,0,0.42,0V53a7.12,7.12,0,0,0,0,1.05,1,1,0,0,0,.29.64,0.88,0.88,0,0,0,.64.24,0.93,0.93,0,0,0,1-.67,4.39,4.39,0,0,0,.1-1.15V51.44l0.22,0,0.22,0v2a1.73,1.73,0,0,1-.59,1.61,1.8,1.8,0,0,1-1.05.29,1.5,1.5,0,0,1-1.61-.93,2.61,2.61,0,0,1-.09-0.68V51.44Zm7.29,3.17-0.12.48a2.42,2.42,0,0,1-1.1.24,1.91,1.91,0,0,1-2.09-1.87,2,2,0,0,1,2.21-2.11,2.5,2.5,0,0,1,1.13.27c-0.05.19-.08,0.38-0.13,0.57h-0.08a1.16,1.16,0,0,0-.92-0.51,1.47,1.47,0,0,0-1.3,1.7A1.38,1.38,0,0,0,161.88,55a1.56,1.56,0,0,0,1-.42Zm2.23,0.65-0.42,0-0.42,0V51.83a7.74,7.74,0,0,0-1,.08,1.7,1.7,0,0,0,0-.24,1.77,1.77,0,0,0,0-.23h2.86a1.87,1.87,0,0,0,0,.23,1.81,1.81,0,0,0,0,.24,8.46,8.46,0,0,0-1-.08v3.42Zm1.62-3.81,0.42,0,0.42,0v3.81l-0.42,0-0.42,0V51.44ZM170,55.22l-0.24,0c-0.47-1.29-1-2.55-1.49-3.81l0.49,0,0.49,0c0.27,0.92.65,1.83,1,2.75,0.38-.91.74-1.83,1-2.75l0.26,0,0.25,0c-0.54,1.26-1.08,2.51-1.55,3.81Zm4.43-3.79a1.07,1.07,0,0,0,0,.48,7.76,7.76,0,0,0-1.28-.08V53h0.58a5,5,0,0,0,.68,0,1.73,1.73,0,0,0,0,.24,1.69,1.69,0,0,0,0,.24,5.17,5.17,0,0,0-.68-0.05h-0.58v1.41a10.48,10.48,0,0,0,1.28-.08,2,2,0,0,0,0,.24,2.07,2.07,0,0,0,0,.24h-2.12V51.44h2.12Zm3.08,0.32H178a1.21,1.21,0,0,1,1.28,1.46c0,1.3-.58,1.68-1.35,1.68h-0.47V51.76Zm-0.83-.32v3.79h1.56a1.91,1.91,0,0,0,2-2,1.64,1.64,0,0,0-1.68-1.78h-1.9Zm6.4,0a1,1,0,0,0,0,.48,7.8,7.8,0,0,0-1.29-.08V53h0.58a5,5,0,0,0,.68,0,1.56,1.56,0,0,0,0,.24,1.53,1.53,0,0,0,0,.24,5.22,5.22,0,0,0-.68-0.05h-0.58v1.41a10.54,10.54,0,0,0,1.29-.08,1.72,1.72,0,0,0,0,.24,1.74,1.74,0,0,0,0,.24h-2.12V51.44H183Zm0.69,0h0.55c0.79,0.86,1.62,1.71,2.4,2.6v-2.6l0.22,0,0.22,0v3.81h-0.47c-0.65-.72-1.25-1.4-1.87-2.06l-0.61-.63v2.69l-0.22,0-0.22,0v-3.8Zm5.83,3.81-0.42,0-0.42,0V51.83a7.74,7.74,0,0,0-1,.08,1.62,1.62,0,0,0,0-.24,1.67,1.67,0,0,0,0-.23h2.86a2,2,0,0,0,0,.23,1.91,1.91,0,0,0,0,.24,8.44,8.44,0,0,0-1-.08v3.42Zm1.62-3.81,0.42,0,0.42,0v3.81l-0.42,0-0.42,0V51.44Zm3.51,0.72a0.67,0.67,0,0,0-.64-0.48,0.52,0.52,0,0,0-.61.54c0,0.75,1.69.61,1.69,1.88a1.31,1.31,0,0,1-1.47,1.22,1.69,1.69,0,0,1-.9-0.24,4.9,4.9,0,0,0,.16-0.71H193a0.75,0.75,0,0,0,.77.61,0.59,0.59,0,0,0,.65-0.58c0-.89-1.66-0.57-1.66-1.91a1.15,1.15,0,0,1,1.28-1.17,1.44,1.44,0,0,1,.88.27c-0.07.18-.12,0.36-0.18,0.55H194.7Zm2.59,3.1-0.42,0-0.42,0V51.83a7.67,7.67,0,0,0-1,.08,1.7,1.7,0,0,0,0-.24,1.74,1.74,0,0,0,0-.23h2.86a1.77,1.77,0,0,0,0,.23,1.71,1.71,0,0,0,0,.24,8.49,8.49,0,0,0-1-.08v3.42Zm1.53-3.81H200a2.22,2.22,0,0,1,.9.11,0.83,0.83,0,0,1,.48.79,1,1,0,0,1-.87,1c0.31,0.53.65,1,1,1.56l0.22,0.35-0.51,0-0.5,0-0.66-1.17c-0.08-.15-0.24-0.41-0.36-0.62h0v1.78l-0.42,0-0.42,0V51.44Zm0.83,1.79a0.7,0.7,0,0,0,.87-0.79,1.58,1.58,0,0,0,0-.28c-0.09-.46-0.51-0.42-0.85-0.42v1.49ZM203,53.65c-0.42-.72-0.78-1.47-1.2-2.21l0.5,0,0.5,0c0.15,0.31.32,0.66,0.47,1a6,6,0,0,0,.35.67,12,12,0,0,0,.83-1.66l0.27,0,0.27,0c-0.4.71-.82,1.38-1.17,2.1v1.72l-0.42,0-0.42,0V53.65Z" transform="translate(-5 -5)"/><path id="nyc-prosthodontics" data-name="NYC PROSTHODONTICS" class="cls-3" d="M87.66,39.36h1c1.46,1.6,3,3.16,4.45,4.82V39.36a2.78,2.78,0,0,0,.41,0,2.82,2.82,0,0,0,.41,0v7.07H93.08c-1.19-1.33-2.31-2.6-3.47-3.83l-1.12-1.18v5l-0.41,0-0.41,0V39.36Zm9.59,4.09c-0.77-1.33-1.45-2.72-2.22-4.09,0.31,0,.62.05,0.93,0.05s0.62,0,.93-0.05c0.28,0.57.59,1.23,0.88,1.84a10.21,10.21,0,0,0,.65,1.24A22.5,22.5,0,0,0,100,39.36a4,4,0,0,0,1,0c-0.74,1.32-1.51,2.57-2.17,3.89v3.19c-0.26,0-.51-0.05-0.77-0.05s-0.51,0-.77.05v-3Zm10.34,1.78-0.23.89a4.52,4.52,0,0,1-2,.44c-2.21,0-3.88-1.36-3.88-3.48,0-2.69,1.86-3.92,4.1-3.92a4.64,4.64,0,0,1,2.1.51c-0.09.35-.15,0.7-0.24,1.06h-0.14a2.15,2.15,0,0,0-1.71-.95c-1.71,0-2.4,1.64-2.4,3.16,0,1.76.87,3,2.45,3a2.89,2.89,0,0,0,1.85-.77Zm5.68-5.32h0.64a1.17,1.17,0,0,1,1,1.37,1.31,1.31,0,0,1-.92,1.4,3.84,3.84,0,0,1-.68.07V39.92Zm0,3.41c1.86,0,3.19-.39,3.19-2.23,0-1.17-.77-1.74-2.2-1.74h-2.54v7.07c0.26,0,.52-0.05.77-0.05s0.52,0,.77.05v-3.1Zm5.79-3.41c0.63,0,1.4-.08,1.57.77a2.51,2.51,0,0,1,.05.52,1.3,1.3,0,0,1-1.62,1.47V39.92Zm-1.55,6.52c0.26,0,.52-0.05.77-0.05s0.52,0,.77.05V43.12h0.07c0.23,0.39.52,0.87,0.67,1.15L121,46.43c0.31,0,.62-0.05.93-0.05s0.63,0,.94.05l-0.4-.64c-0.62-1-1.26-1.91-1.82-2.9A1.84,1.84,0,0,0,122.28,41a1.54,1.54,0,0,0-.9-1.47,4.14,4.14,0,0,0-1.67-.21h-2.2v7.07Zm9.92-6.64c1.55,0,2.16,1.53,2.16,2.86,0,1.71-.71,3.3-2.3,3.3s-2.15-1.42-2.15-2.76C125.15,40.88,126,39.79,127.43,39.79Zm3.88,3.05a3.49,3.49,0,0,0-3.81-3.67c-2.57,0-4.06,1.66-4.06,3.71a3.48,3.48,0,0,0,3.82,3.68A3.75,3.75,0,0,0,131.31,42.85Zm4.39-2.16a1.23,1.23,0,0,0-1.19-.9,1,1,0,0,0-1.14,1c0,1.39,3.14,1.13,3.14,3.49,0,1.32-1.13,2.27-2.73,2.27a3.15,3.15,0,0,1-1.66-.44,9.43,9.43,0,0,0,.3-1.31h0.2A1.39,1.39,0,0,0,134,45.95a1.09,1.09,0,0,0,1.21-1.07c0-1.65-3.07-1.05-3.07-3.54a2.14,2.14,0,0,1,2.38-2.16,2.69,2.69,0,0,1,1.63.49c-0.12.33-.23,0.67-0.33,1H135.7Zm4.85,5.74c-0.26,0-.52-0.05-0.77-0.05s-0.52,0-.77.05V40.09a14.18,14.18,0,0,0-1.92.14,3,3,0,0,0,.05-0.44,3,3,0,0,0-.05-0.43h5.31a1.83,1.83,0,0,0,0,.88,15.57,15.57,0,0,0-1.85-.14v6.34Zm3-7.07c0.26,0,.51.05,0.77,0.05s0.52,0,.77-0.05v2.79c0.53,0,1.05.05,1.58,0.05s1.05,0,1.58-.05V39.36c0.26,0,.52.05,0.77,0.05s0.52,0,.77-0.05v7.07c-0.26,0-.52-0.05-0.77-0.05s-0.52,0-.77.05V43c-0.53,0-1.05-.05-1.58-0.05s-1.05,0-1.58.05v3.45c-0.26,0-.51-0.05-0.77-0.05s-0.52,0-.77.05V39.36Zm11.53,0.43c1.55,0,2.16,1.53,2.16,2.86,0,1.71-.71,3.3-2.3,3.3s-2.15-1.42-2.15-2.76C152.77,40.88,153.62,39.79,155.06,39.79Zm3.87,3.05a3.49,3.49,0,0,0-3.81-3.67c-2.57,0-4.06,1.66-4.06,3.71a3.48,3.48,0,0,0,3.82,3.68A3.75,3.75,0,0,0,158.93,42.85ZM161.74,40h1c1.45,0,2.37.76,2.37,2.7,0,2.41-1.08,3.12-2.5,3.12h-0.88V40Zm-1.55-.6v7h2.89a3.54,3.54,0,0,0,3.75-3.71,3,3,0,0,0-3.12-3.31h-3.52Zm11.54,0.43c1.55,0,2.16,1.53,2.16,2.86,0,1.71-.71,3.3-2.3,3.3s-2.15-1.42-2.15-2.76C169.44,40.88,170.29,39.79,171.73,39.79Zm3.88,3.05a3.49,3.49,0,0,0-3.81-3.67c-2.57,0-4.06,1.66-4.06,3.71a3.48,3.48,0,0,0,3.82,3.68A3.76,3.76,0,0,0,175.61,42.85Zm1.25-3.48h1c1.46,1.6,3,3.16,4.45,4.82V39.36a2.82,2.82,0,0,0,.41,0,2.78,2.78,0,0,0,.41,0v7.07h-0.88c-1.2-1.33-2.31-2.6-3.48-3.83l-1.12-1.18v5l-0.41,0-0.41,0V39.36Zm10.86,7.07c-0.26,0-.52-0.05-0.77-0.05s-0.52,0-.77.05V40.09a14.15,14.15,0,0,0-1.92.14,3.2,3.2,0,0,0,.05-0.44,3.23,3.23,0,0,0-.05-0.43h5.31a3.55,3.55,0,0,0,0,.43,3.5,3.5,0,0,0,0,.44,15.53,15.53,0,0,0-1.84-.14v6.34Zm3-7.07c0.26,0,.52.05,0.77,0.05s0.51,0,.77-0.05v7.07c-0.26,0-.52-0.05-0.77-0.05s-0.52,0-.77.05V39.36Zm8.94,5.88-0.23.89a4.51,4.51,0,0,1-2,.44c-2.21,0-3.88-1.36-3.88-3.48,0-2.69,1.86-3.92,4.1-3.92a4.64,4.64,0,0,1,2.1.51c-0.09.35-.15,0.7-0.24,1.06h-0.14a2.15,2.15,0,0,0-1.71-.95c-1.71,0-2.4,1.64-2.4,3.16,0,1.76.87,3,2.45,3a2.88,2.88,0,0,0,1.85-.77Zm4.51-4.55a1.23,1.23,0,0,0-1.19-.9,1,1,0,0,0-1.14,1c0,1.39,3.13,1.13,3.13,3.49,0,1.32-1.13,2.27-2.73,2.27a3.15,3.15,0,0,1-1.66-.44,9.44,9.44,0,0,0,.3-1.31h0.2a1.39,1.39,0,0,0,1.42,1.13,1.09,1.09,0,0,0,1.21-1.07c0-1.65-3.07-1.05-3.07-3.54A2.14,2.14,0,0,1,203,39.17a2.69,2.69,0,0,1,1.63.49c-0.12.33-.23,0.67-0.33,1h-0.15Z" transform="translate(-5 -5)"/></svg>